<svg data-v-fde0c5aa="" xmlns="http://www.w3.org/2000/svg" viewBox="0 0 300 300" class="iconLeft"><!----><defs data-v-fde0c5aa=""><!----></defs><rect data-v-fde0c5aa="" fill="transparent" x="0" y="0" width="300px" height="300px" class="logo-background-square"></rect><defs data-v-fde0c5aa=""><!----></defs><g data-v-fde0c5aa="" id="250ccf89-42b0-4756-8b58-7bf995ff1323" fill="#000000" transform="matrix(1.8679569959640503,0,0,1.8679569959640503,91.78901551604054,135.58900384523403)"><path d="M5.87 10.75L5.87 10.75L5.87 10.75Q5.94 10.72 5.99 10.75L5.99 10.75L5.99 10.75Q6.03 10.77 6.03 10.85L6.03 10.85L6.06 11.40L6.06 11.40Q6.08 11.58 5.91 11.65L5.91 11.65L5.91 11.65Q5.56 11.80 5.19 11.87L5.19 11.87L5.19 11.87Q4.83 11.94 4.45 11.94L4.45 11.94L4.45 11.94Q2.76 11.94 1.69 10.46L1.69 10.46L1.69 10.46Q1.22 9.73 0.99 8.83L0.99 8.83L0.99 8.83Q0.76 7.92 0.76 7.00L0.76 7.00L0.76 7.00Q0.76 6.16 0.99 5.26L0.99 5.26L0.99 5.26Q1.22 4.35 1.69 3.63L1.69 3.63L1.69 3.63Q2.76 2.14 4.45 2.14L4.45 2.14L4.45 2.14Q4.83 2.14 5.19 2.21L5.19 2.21L5.19 2.21Q5.56 2.28 5.91 2.44L5.91 2.44L5.91 2.44Q6.08 2.51 6.06 2.69L6.06 2.69L6.03 3.23L6.03 3.23Q6.03 3.32 5.99 3.34L5.99 3.34L5.99 3.34Q5.94 3.36 5.87 3.33L5.87 3.33L5.87 3.33Q5.54 3.19 5.21 3.11L5.21 3.11L5.21 3.11Q4.89 3.02 4.45 3.02L4.45 3.02L4.45 3.02Q3.25 3.02 2.45 4.27L2.45 4.27L2.45 4.27Q2.09 4.87 1.91 5.62L1.91 5.62L1.91 5.62Q1.74 6.37 1.74 7.00L1.74 7.00L1.74 7.00Q1.74 7.71 1.91 8.46L1.91 8.46L1.91 8.46Q2.09 9.21 2.45 9.81L2.45 9.81L2.45 9.81Q3.25 11.06 4.45 11.06L4.45 11.06L4.45 11.06Q4.93 11.06 5.24 10.98L5.24 10.98L5.24 10.98Q5.54 10.89 5.87 10.75ZM12.45 8.29L12.45 8.29L12.45 8.29Q12.45 7.74 12.32 7.21L12.32 7.21L12.32 7.21Q12.19 6.68 11.93 6.24L11.93 6.24L11.93 6.24Q11.40 5.40 10.49 5.40L10.49 5.40L10.49 5.40Q9.53 5.40 9.04 6.24L9.04 6.24L9.04 6.24Q8.78 6.68 8.66 7.21L8.66 7.21L8.66 7.21Q8.54 7.74 8.54 8.29L8.54 8.29L8.54 8.29Q8.54 8.89 8.65 9.42L8.65 9.42L8.65 9.42Q8.76 9.95 9.04 10.33L9.04 10.33L9.04 10.33Q9.66 11.19 10.49 11.19L10.49 11.19L10.49 11.19Q11.45 11.19 11.93 10.33L11.93 10.33L11.93 10.33Q12.21 9.95 12.33 9.42L12.33 9.42L12.33 9.42Q12.45 8.89 12.45 8.29ZM13.41 8.29L13.41 8.29L13.41 8.29Q13.41 9.06 13.24 9.74L13.24 9.74L13.24 9.74Q13.06 10.42 12.70 10.88L12.70 10.88L12.70 10.88Q12.28 11.42 11.73 11.73L11.73 11.73L11.73 11.73Q11.19 12.03 10.49 12.03L10.49 12.03L10.49 12.03Q9.79 12.03 9.24 11.73L9.24 11.73L9.24 11.73Q8.69 11.42 8.27 10.88L8.27 10.88L8.27 10.88Q7.94 10.37 7.76 9.72L7.76 9.72L7.76 9.72Q7.59 9.06 7.59 8.29L7.59 8.29L7.59 8.29Q7.59 6.71 8.27 5.70L8.27 5.70L8.27 5.70Q9.07 4.56 10.49 4.56L10.49 4.56L10.49 4.56Q11.20 4.56 11.74 4.84L11.74 4.84L11.74 4.84Q12.28 5.11 12.70 5.70L12.70 5.70L12.70 5.70Q13.41 6.72 13.41 8.29ZM20.16 1.64L20.16 11.62L20.16 11.62Q20.16 11.80 19.96 11.80L19.96 11.80L19.42 11.80L19.42 11.80Q19.22 11.80 19.22 11.62L19.22 11.62L19.22 10.60L19.22 10.60Q18.65 11.94 17.26 11.94L17.26 11.94L17.26 11.94Q16.62 11.94 16.09 11.63L16.09 11.63L16.09 11.63Q15.57 11.33 15.19 10.75L15.19 10.75L15.19 10.75Q14.81 10.16 14.65 9.49L14.65 9.49L14.65 9.49Q14.49 8.82 14.49 8.08L14.49 8.08L14.49 8.08Q14.49 6.76 15.22 5.66L15.22 5.66L15.22 5.66Q15.95 4.56 17.26 4.56L17.26 4.56L17.26 4.56Q17.96 4.56 18.46 4.91L18.46 4.91L18.46 4.91Q18.96 5.26 19.22 5.81L19.22 5.81L19.22 1.64L19.22 1.64Q19.22 1.46 19.42 1.46L19.42 1.46L19.96 1.46L19.96 1.46Q20.16 1.46 20.16 1.64L20.16 1.64ZM15.48 8.23L15.48 8.23L15.48 8.23Q15.47 8.67 15.57 9.18L15.57 9.18L15.57 9.18Q15.67 9.69 15.90 10.14L15.90 10.14L15.90 10.14Q16.13 10.60 16.48 10.86L16.48 10.86L16.48 10.86Q16.83 11.13 17.35 11.13L17.35 11.13L17.35 11.13Q17.86 11.13 18.21 10.86L18.21 10.86L18.21 10.86Q18.56 10.60 18.80 10.14L18.80 10.14L18.80 10.14Q19.03 9.69 19.11 9.18L19.11 9.18L19.11 9.18Q19.19 8.67 19.19 8.23L19.19 8.23L19.19 8.23Q19.19 7.83 19.11 7.30L19.11 7.30L19.11 7.30Q19.03 6.78 18.80 6.33L18.80 6.33L18.80 6.33Q18.56 5.88 18.21 5.61L18.21 5.61L18.21 5.61Q17.86 5.35 17.35 5.35L17.35 5.35L17.35 5.35Q16.83 5.35 16.48 5.61L16.48 5.61L16.48 5.61Q16.13 5.88 15.89 6.33L15.89 6.33L15.89 6.33Q15.65 6.78 15.56 7.30L15.56 7.30L15.56 7.30Q15.47 7.83 15.48 8.23ZM25.14 10.93L26.81 10.93L26.81 10.93Q27.01 10.93 27.01 11.13L27.01 11.13L27.01 11.61L27.01 11.61Q27.01 11.80 26.81 11.80L26.81 11.80L22.34 11.80L22.34 11.80Q22.15 11.80 22.15 11.61L22.15 11.61L22.15 11.13L22.15 11.13Q22.15 10.93 22.34 10.93L22.34 10.93L24.14 10.93L24.14 5.66L22.50 5.66L22.50 5.66Q22.30 5.66 22.30 5.46L22.30 5.46L22.30 4.98L22.30 4.98Q22.30 4.79 22.50 4.79L22.50 4.79L24.95 4.79L24.95 4.79Q25.14 4.79 25.14 4.98L25.14 4.98L25.14 10.93ZM23.70 2.52L23.70 2.52L23.70 2.52Q23.70 2.20 23.93 1.97L23.93 1.97L23.93 1.97Q24.16 1.74 24.49 1.74L24.49 1.74L24.49 1.74Q24.81 1.74 25.04 1.97L25.04 1.97L25.04 1.97Q25.27 2.20 25.27 2.52L25.27 2.52L25.27 2.52Q25.27 2.84 25.04 3.07L25.04 3.07L25.04 3.07Q24.81 3.30 24.49 3.30L24.49 3.30L24.49 3.30Q24.16 3.30 23.93 3.07L23.93 3.07L23.93 3.07Q23.70 2.84 23.70 2.52ZM34.12 7.53L34.12 11.61L34.12 11.61Q34.12 11.80 33.92 11.80L33.92 11.80L33.36 11.80L33.36 11.80Q33.17 11.80 33.17 11.61L33.17 11.61L33.17 7.76L33.17 7.76Q33.17 6.47 32.82 5.93L32.82 5.93L32.82 5.93Q32.47 5.39 31.63 5.39L31.63 5.39L31.63 5.39Q30.88 5.39 30.38 5.99L30.38 5.99L30.38 5.99Q29.88 6.58 29.88 7.78L29.88 7.78L29.88 11.61L29.88 11.61Q29.88 11.80 29.68 11.80L29.68 11.80L29.12 11.80L29.12 11.80Q28.92 11.80 28.92 11.61L28.92 11.61L28.92 6.57L28.92 6.57Q28.92 5.96 28.92 5.63L28.92 5.63L28.92 5.63Q28.91 5.29 28.88 4.98L28.88 4.98L28.88 4.98Q28.87 4.89 28.93 4.84L28.93 4.84L28.93 4.84Q28.99 4.79 29.08 4.79L29.08 4.79L29.58 4.79L29.58 4.79Q29.78 4.79 29.78 4.98L29.78 4.98L29.78 5.77L29.78 5.77Q30.11 5.17 30.60 4.88L30.60 4.88L30.60 4.88Q31.08 4.59 31.71 4.59L31.71 4.59L31.71 4.59Q32.94 4.59 33.53 5.36L33.53 5.36L33.53 5.36Q34.12 6.13 34.12 7.53L34.12 7.53ZM36.20 13.64L36.20 13.64L36.20 13.64Q36.05 13.59 36.08 13.44L36.08 13.44L36.11 12.81L36.11 12.81Q36.11 12.63 36.29 12.73L36.29 12.73L36.29 12.73Q36.81 12.96 37.25 13.07L37.25 13.07L37.25 13.07Q37.70 13.17 38.07 13.17L38.07 13.17L38.07 13.17Q39.02 13.17 39.59 12.45L39.59 12.45L39.59 12.45Q40.17 11.73 40.22 10.35L40.22 10.35L40.22 10.35Q39.91 10.95 39.41 11.25L39.41 11.25L39.41 11.25Q38.91 11.55 38.28 11.55L38.28 11.55L38.28 11.55Q37.67 11.55 37.18 11.32L37.18 11.32L37.18 11.32Q36.68 11.09 36.32 10.65L36.32 10.65L36.32 10.65Q35.97 10.22 35.78 9.58L35.78 9.58L35.78 9.58Q35.59 8.93 35.59 8.19L35.59 8.19L35.59 8.19Q35.59 7.42 35.78 6.76L35.78 6.76L35.78 6.76Q35.97 6.10 36.32 5.61L36.32 5.61L36.32 5.61Q36.68 5.12 37.18 4.87L37.18 4.87L37.18 4.87Q37.67 4.62 38.28 4.62L38.28 4.62L38.28 4.62Q38.91 4.62 39.46 4.96L39.46 4.96L39.46 4.96Q40.01 5.31 40.26 5.82L40.26 5.82L40.24 4.97L40.24 4.97Q40.24 4.79 40.43 4.79L40.43 4.79L40.95 4.79L40.95 4.79Q41.15 4.79 41.15 4.97L41.15 4.97L41.15 10.12L41.15 10.12Q41.15 10.93 40.93 11.70L40.93 11.70L40.93 11.70Q40.71 12.47 40.28 12.97L40.28 12.97L40.28 12.97Q39.86 13.47 39.33 13.72L39.33 13.72L39.33 13.72Q38.79 13.97 38.05 13.97L38.05 13.97L38.05 13.97Q37.63 13.97 37.17 13.90L37.17 13.90L37.17 13.90Q36.71 13.82 36.20 13.64ZM36.60 8.08L36.60 8.08L36.60 8.08Q36.60 8.48 36.67 8.95L36.67 8.95L36.67 8.95Q36.75 9.42 36.98 9.87L36.98 9.87L36.98 9.87Q37.21 10.32 37.56 10.53L37.56 10.53L37.56 10.53Q37.91 10.74 38.40 10.74L38.40 10.74L38.40 10.74Q38.89 10.74 39.23 10.49L39.23 10.49L39.23 10.49Q39.58 10.25 39.81 9.84L39.81 9.84L39.81 9.84Q40.04 9.42 40.11 8.95L40.11 8.95L40.11 8.95Q40.18 8.48 40.18 8.08L40.18 8.08L40.18 8.08Q40.18 7.70 40.11 7.22L40.11 7.22L40.11 7.22Q40.04 6.73 39.81 6.33L39.81 6.33L39.81 6.33Q39.58 5.92 39.23 5.68L39.23 5.68L39.23 5.68Q38.89 5.43 38.40 5.43L38.40 5.43L38.40 5.43Q37.91 5.43 37.57 5.68L37.57 5.68L37.57 5.68Q37.23 5.92 36.99 6.33L36.99 6.33L36.99 6.33Q36.75 6.73 36.67 7.22L36.67 7.22L36.67 7.22Q36.60 7.70 36.60 8.08ZM51.45 10.92L55.26 10.92L55.26 10.92Q55.45 10.92 55.45 11.12L55.45 11.12L55.45 11.61L55.45 11.61Q55.45 11.80 55.26 11.80L55.26 11.80L50.93 11.80L50.93 11.80Q50.74 11.80 50.63 11.80L50.63 11.80L50.63 11.80Q50.53 11.79 50.48 11.74L50.48 11.74L50.48 11.74Q50.43 11.69 50.42 11.58L50.42 11.58L50.42 11.58Q50.41 11.47 50.41 11.27L50.41 11.27L50.41 2.45L50.41 2.45Q50.41 2.25 50.61 2.25L50.61 2.25L51.25 2.25L51.25 2.25Q51.45 2.25 51.45 2.45L51.45 2.45L51.45 10.92ZM60.14 10.93L61.81 10.93L61.81 10.93Q62.01 10.93 62.01 11.13L62.01 11.13L62.01 11.61L62.01 11.61Q62.01 11.80 61.81 11.80L61.81 11.80L57.34 11.80L57.34 11.80Q57.15 11.80 57.15 11.61L57.15 11.61L57.15 11.13L57.15 11.13Q57.15 10.93 57.34 10.93L57.34 10.93L59.14 10.93L59.14 5.66L57.50 5.66L57.50 5.66Q57.30 5.66 57.30 5.46L57.30 5.46L57.30 4.98L57.30 4.98Q57.30 4.79 57.50 4.79L57.50 4.79L59.95 4.79L59.95 4.79Q60.14 4.79 60.14 4.98L60.14 4.98L60.14 10.93ZM58.70 2.52L58.70 2.52L58.70 2.52Q58.70 2.20 58.93 1.97L58.93 1.97L58.93 1.97Q59.16 1.74 59.49 1.74L59.49 1.74L59.49 1.74Q59.81 1.74 60.04 1.97L60.04 1.97L60.04 1.97Q60.27 2.20 60.27 2.52L60.27 2.52L60.27 2.52Q60.27 2.84 60.04 3.07L60.04 3.07L60.04 3.07Q59.81 3.30 59.49 3.30L59.49 3.30L59.49 3.30Q59.16 3.30 58.93 3.07L58.93 3.07L58.93 3.07Q58.70 2.84 58.70 2.52ZM64.20 13.64L64.20 13.64L64.20 13.64Q64.05 13.59 64.08 13.44L64.08 13.44L64.11 12.81L64.11 12.81Q64.11 12.63 64.29 12.73L64.29 12.73L64.29 12.73Q64.81 12.96 65.25 13.07L65.25 13.07L65.25 13.07Q65.70 13.17 66.07 13.17L66.07 13.17L66.07 13.17Q67.02 13.17 67.59 12.45L67.59 12.45L67.59 12.45Q68.17 11.73 68.22 10.35L68.22 10.35L68.22 10.35Q67.91 10.95 67.41 11.25L67.41 11.25L67.41 11.25Q66.91 11.55 66.28 11.55L66.28 11.55L66.28 11.55Q65.67 11.55 65.18 11.32L65.18 11.32L65.18 11.32Q64.68 11.09 64.32 10.65L64.32 10.65L64.32 10.65Q63.97 10.22 63.78 9.58L63.78 9.58L63.78 9.58Q63.59 8.93 63.59 8.19L63.59 8.19L63.59 8.19Q63.59 7.42 63.78 6.76L63.78 6.76L63.78 6.76Q63.97 6.10 64.32 5.61L64.32 5.61L64.32 5.61Q64.68 5.12 65.18 4.87L65.18 4.87L65.18 4.87Q65.67 4.62 66.28 4.62L66.28 4.62L66.28 4.62Q66.91 4.62 67.46 4.96L67.46 4.96L67.46 4.96Q68.01 5.31 68.26 5.82L68.26 5.82L68.24 4.97L68.24 4.97Q68.24 4.79 68.43 4.79L68.43 4.79L68.95 4.79L68.95 4.79Q69.15 4.79 69.15 4.97L69.15 4.97L69.15 10.12L69.15 10.12Q69.15 10.93 68.93 11.70L68.93 11.70L68.93 11.70Q68.71 12.47 68.28 12.97L68.28 12.97L68.28 12.97Q67.86 13.47 67.33 13.72L67.33 13.72L67.33 13.72Q66.79 13.97 66.05 13.97L66.05 13.97L66.05 13.97Q65.63 13.97 65.17 13.90L65.17 13.90L65.17 13.90Q64.71 13.82 64.20 13.64ZM64.60 8.08L64.60 8.08L64.60 8.08Q64.60 8.48 64.67 8.95L64.67 8.95L64.67 8.95Q64.75 9.42 64.98 9.87L64.98 9.87L64.98 9.87Q65.21 10.32 65.56 10.53L65.56 10.53L65.56 10.53Q65.91 10.74 66.40 10.74L66.40 10.74L66.40 10.74Q66.89 10.74 67.23 10.49L67.23 10.49L67.23 10.49Q67.58 10.25 67.81 9.84L67.81 9.84L67.81 9.84Q68.04 9.42 68.11 8.95L68.11 8.95L68.11 8.95Q68.18 8.48 68.18 8.08L68.18 8.08L68.18 8.08Q68.18 7.70 68.11 7.22L68.11 7.22L68.11 7.22Q68.04 6.73 67.81 6.33L67.81 6.33L67.81 6.33Q67.58 5.92 67.23 5.68L67.23 5.68L67.23 5.68Q66.89 5.43 66.40 5.43L66.40 5.43L66.40 5.43Q65.91 5.43 65.57 5.68L65.57 5.68L65.57 5.68Q65.23 5.92 64.99 6.33L64.99 6.33L64.99 6.33Q64.75 6.73 64.67 7.22L64.67 7.22L64.67 7.22Q64.60 7.70 64.60 8.08ZM76.20 7.80L76.20 11.61L76.20 11.61Q76.20 11.80 76.01 11.80L76.01 11.80L75.45 11.80L75.45 11.80Q75.25 11.80 75.25 11.61L75.25 11.61L75.25 7.81L75.25 7.81Q75.25 7.14 75.14 6.67L75.14 6.67L75.14 6.67Q75.03 6.20 74.80 5.92L74.80 5.92L74.80 5.92Q74.56 5.63 74.27 5.50L74.27 5.50L74.27 5.50Q73.98 5.38 73.54 5.38L73.54 5.38L73.54 5.38Q72.77 5.38 72.28 5.92L72.28 5.92L72.28 5.92Q71.79 6.47 71.79 7.43L71.79 7.43L71.79 11.61L71.79 11.61Q71.79 11.80 71.60 11.80L71.60 11.80L71.04 11.80L71.04 11.80Q70.84 11.80 70.84 11.61L70.84 11.61L70.84 1.69L70.84 1.69Q70.84 1.50 71.04 1.50L71.04 1.50L71.60 1.50L71.60 1.50Q71.79 1.50 71.79 1.69L71.79 1.69L71.79 5.52L71.79 5.52Q72.18 5.00 72.64 4.79L72.64 4.79L72.64 4.79Q73.09 4.58 73.64 4.58L73.64 4.58L73.64 4.58Q74.89 4.58 75.54 5.38L75.54 5.38L75.54 5.38Q76.20 6.17 76.20 7.80L76.20 7.80ZM82.98 11.79L82.98 11.79L82.98 11.79Q82.39 12.03 81.61 12.03L81.61 12.03L81.61 12.03Q80.33 12.03 79.97 11.28L79.97 11.28L79.97 11.28Q79.73 10.78 79.73 9.51L79.73 9.51L79.73 5.92L77.91 5.92L77.91 5.92Q77.71 5.92 77.71 5.73L77.71 5.73L77.71 5.31L77.71 5.31Q77.71 5.11 77.91 5.11L77.91 5.11L79.73 5.11L79.73 3.14L79.73 3.14Q79.73 2.93 79.91 2.93L79.91 2.93L80.50 2.93L80.50 2.93Q80.68 2.93 80.68 3.14L80.68 3.14L80.68 5.11L82.94 5.11L82.94 5.11Q83.13 5.11 83.13 5.31L83.13 5.31L83.13 5.73L83.13 5.73Q83.13 5.92 82.94 5.92L82.94 5.92L80.68 5.92L80.68 10.14L80.68 10.14Q80.68 11.19 81.83 11.19L81.83 11.19L81.83 11.19Q82.40 11.19 82.92 10.95L82.92 10.95L82.92 10.95Q82.99 10.92 83.06 10.95L83.06 10.95L83.06 10.95Q83.12 10.98 83.12 11.06L83.12 11.06L83.15 11.51L83.15 11.51Q83.17 11.70 82.98 11.79ZM85.27 10.88L85.27 10.88L85.27 10.88Q86.17 11.23 87.12 11.23L87.12 11.23L87.12 11.23Q87.92 11.23 88.47 10.83L88.47 10.83L88.47 10.83Q89.03 10.43 89.03 10.02L89.03 10.02L89.03 10.02Q89.03 9.65 88.72 9.37L88.72 9.37L88.72 9.37Q88.41 9.09 87.96 8.86L87.96 8.86L87.96 8.86Q87.49 8.61 87.03 8.38L87.03 8.38L87.03 8.38Q86.58 8.15 86.11 7.91L86.11 7.91L86.11 7.91Q85.58 7.64 85.34 7.26L85.34 7.26L85.34 7.26Q85.09 6.87 85.09 6.51L85.09 6.51L85.09 6.51Q85.09 6.06 85.29 5.71L85.29 5.71L85.29 5.71Q85.48 5.36 85.82 5.10L85.82 5.10L85.82 5.10Q86.16 4.83 86.64 4.70L86.64 4.70L86.64 4.70Q87.12 4.56 87.67 4.56L87.67 4.56L87.67 4.56Q88.17 4.56 88.59 4.62L88.59 4.62L88.59 4.62Q89.01 4.68 89.46 4.82L89.46 4.82L89.46 4.82Q89.56 4.84 89.62 4.90L89.62 4.90L89.62 4.90Q89.68 4.96 89.67 5.04L89.67 5.04L89.63 5.49L89.63 5.49Q89.61 5.60 89.54 5.63L89.54 5.63L89.54 5.63Q89.46 5.66 89.39 5.63L89.39 5.63L89.39 5.63Q88.98 5.47 88.61 5.42L88.61 5.42L88.61 5.42Q88.23 5.36 87.77 5.36L87.77 5.36L87.77 5.36Q86.07 5.36 86.07 6.51L86.07 6.51L86.07 6.51Q86.07 6.72 86.30 6.95L86.30 6.95L86.30 6.95Q86.52 7.18 87.07 7.42L87.07 7.42L87.07 7.42Q87.60 7.67 88.03 7.88L88.03 7.88L88.03 7.88Q88.45 8.08 88.97 8.36L88.97 8.36L88.97 8.36Q89.59 8.72 89.82 9.11L89.82 9.11L89.82 9.11Q90.05 9.51 90.05 10.01L90.05 10.01L90.05 10.01Q90.05 10.42 89.81 10.84L89.81 10.84L89.81 10.84Q89.57 11.26 89.17 11.51L89.17 11.51L89.17 11.51Q88.77 11.76 88.26 11.89L88.26 11.89L88.26 11.89Q87.74 12.03 87.21 12.03L87.21 12.03L87.21 12.03Q86.87 12.03 86.61 12.01L86.61 12.01L86.61 12.01Q86.35 12.00 86.12 11.97L86.12 11.97L86.12 11.97Q85.89 11.94 85.66 11.90L85.66 11.90L85.66 11.90Q85.43 11.86 85.18 11.79L85.18 11.79L85.18 11.79Q84.95 11.72 84.97 11.55L84.97 11.55L85.04 11.00L85.04 11.00Q85.08 10.79 85.27 10.88Z"></path></g><defs data-v-fde0c5aa=""><linearGradient data-v-fde0c5aa="" gradientTransform="rotate(25)" id="e82b725e-dc43-43ec-ae9c-753e0d10c76f" x1="0%" y1="0%" x2="100%" y2="0%"><stop data-v-fde0c5aa="" offset="0%" stop-color="#01648B" stop-opacity="1"></stop><stop data-v-fde0c5aa="" offset="100%" stop-color="#5BD0A4" stop-opacity="1"></stop></linearGradient></defs><g data-v-fde0c5aa="" id="6101b86a-ee82-49ec-81ba-ea71ff8f1666" stroke="none" fill="url(#e82b725e-dc43-43ec-ae9c-753e0d10c76f)" transform="matrix(0.8391131162643433,0,0,0.8391131162643433,39.0625533271788,129.02217235644858)"><path d="M10.821 24.951L21 32.193v6.842L1.118 24.891 21 11.118V17.9zM49.039 25.277l-13.224-9.214-1.596 5.649 5.256 3.626-8.064 5.632L29 38.79v.634zM31.52 4.119l4.784 1.384-11.685 40.38-4.785-1.386z"></path></g><!----></svg>